<svg width="18" height="18" viewBox="0 0 18 18" fill="none" xmlns="http://www.w3.org/2000/svg">
<path fill-rule="evenodd" clip-rule="evenodd" d="M9 1.6875C9.31066 1.6875 9.5625 1.93934 9.5625 2.25V12.9375C9.5625 13.2482 9.31066 13.5 9 13.5C8.68934 13.5 8.4375 13.2482 8.4375 12.9375V2.25C8.4375 1.93934 8.68934 1.6875 9 1.6875Z" fill="black"/>
<path fill-rule="evenodd" clip-rule="evenodd" d="M3.53975 7.47725C3.75942 7.25758 4.11558 7.25758 4.33525 7.47725L9 12.142L13.6648 7.47725C13.8844 7.25758 14.2406 7.25758 14.4602 7.47725C14.6799 7.69692 14.6799 8.05308 14.4602 8.27275L9.39775 13.3352C9.17808 13.5549 8.82192 13.5549 8.60225 13.3352L3.53975 8.27275C3.32008 8.05308 3.32008 7.69692 3.53975 7.47725Z" fill="black"/>
<path fill-rule="evenodd" clip-rule="evenodd" d="M2.25 15.1875C2.25 14.8768 2.50184 14.625 2.8125 14.625H15.1875C15.4982 14.625 15.75 14.8768 15.75 15.1875C15.75 15.4982 15.4982 15.75 15.1875 15.75H2.8125C2.50184 15.75 2.25 15.4982 2.25 15.1875Z" fill="black"/>
</svg>
