<svg width="20" height="20" viewBox="0 0 20 20" fill="none" xmlns="http://www.w3.org/2000/svg">
<path fill-rule="evenodd" clip-rule="evenodd" d="M10 5C10.3452 5 10.625 5.27982 10.625 5.625V17.5C10.625 17.8452 10.3452 18.125 10 18.125C9.65482 18.125 9.375 17.8452 9.375 17.5V5.625C9.375 5.27982 9.65482 5 10 5Z" fill="#000"/>
<path fill-rule="evenodd" clip-rule="evenodd" d="M9.55806 5.18306C9.80214 4.93898 10.1979 4.93898 10.4419 5.18306L16.0669 10.8081C16.311 11.0521 16.311 11.4479 16.0669 11.6919C15.8229 11.936 15.4271 11.936 15.1831 11.6919L10 6.50888L4.81694 11.6919C4.57286 11.936 4.17714 11.936 3.93306 11.6919C3.68898 11.4479 3.68898 11.0521 3.93306 10.8081L9.55806 5.18306Z" fill="#000"/>
<path fill-rule="evenodd" clip-rule="evenodd" d="M2.5 3.125C2.5 2.77982 2.77982 2.5 3.125 2.5H16.875C17.2202 2.5 17.5 2.77982 17.5 3.125C17.5 3.47018 17.2202 3.75 16.875 3.75H3.125C2.77982 3.75 2.5 3.47018 2.5 3.125Z" fill="#000"/>
</svg>
