<svg width="20" height="20" viewBox="0 0 20 20" fill="none" xmlns="http://www.w3.org/2000/svg">
<path fill-rule="evenodd" clip-rule="evenodd" d="M10 2.5C9.65482 2.5 9.375 2.77982 9.375 3.125V16.875C9.375 17.2202 9.65482 17.5 10 17.5C10.3452 17.5 10.625 17.2202 10.625 16.875V3.125C10.625 2.77982 10.3452 2.5 10 2.5Z" fill="#000"/>
<path fill-rule="evenodd" clip-rule="evenodd" d="M10.4419 2.68306C10.1979 2.43898 9.80214 2.43898 9.55806 2.68306L3.93306 8.30806C3.68898 8.55214 3.68898 8.94786 3.93306 9.19194C4.17714 9.43602 4.57286 9.43602 4.81694 9.19194L10 4.00888L15.1831 9.19194C15.4271 9.43602 15.8229 9.43602 16.0669 9.19194C16.311 8.94786 16.311 8.55214 16.0669 8.30806L10.4419 2.68306Z" fill="#000"/>
</svg>
