<svg width="18" height="18" viewBox="0 0 18 18" fill="none" xmlns="http://www.w3.org/2000/svg">
<path fill-rule="evenodd" clip-rule="evenodd" d="M1.6875 6.1875C1.6875 5.56618 2.19118 5.0625 2.8125 5.0625H12.9375C13.5588 5.0625 14.0625 5.56618 14.0625 6.1875V14.0625C14.0625 14.6838 13.5588 15.1875 12.9375 15.1875H2.8125C2.19118 15.1875 1.6875 14.6838 1.6875 14.0625V6.1875ZM12.9375 6.1875H2.8125V14.0625H12.9375V6.1875Z" fill="black"/>
<path fill-rule="evenodd" clip-rule="evenodd" d="M3.9375 3.375C3.9375 3.06434 4.18934 2.8125 4.5 2.8125H15.1875C15.4859 2.8125 15.772 2.93103 15.983 3.142C16.194 3.35298 16.3125 3.63913 16.3125 3.9375V12.375C16.3125 12.6857 16.0607 12.9375 15.75 12.9375C15.4393 12.9375 15.1875 12.6857 15.1875 12.375V3.9375H4.5C4.18934 3.9375 3.9375 3.68566 3.9375 3.375Z" fill="black"/>
</svg>
