<svg width="20" height="20" viewBox="0 0 20 20" fill="none" xmlns="http://www.w3.org/2000/svg">
<g opacity="0.3">
<path opacity="0.3" d="M13.9663 4.10399C13.4196 4.10355 12.8955 3.92237 12.5089 3.60023C12.1223 3.27809 11.9049 2.8413 11.9044 2.38572V1.54871e-07H2.69187C2.33842 -0.000109301 1.98839 0.0578013 1.66181 0.170444C1.33522 0.283086 1.03847 0.448249 0.788498 0.656486C0.538522 0.864724 0.340225 1.11196 0.204934 1.38408C0.0696424 1.65619 -2.44048e-08 1.94785 0 2.2424V15.7601C-2.44048e-08 16.0547 0.0696424 16.3464 0.204934 16.6185C0.340225 16.8906 0.538522 17.1378 0.788498 17.3461C1.03847 17.5543 1.33522 17.7195 1.66181 17.8321C1.98839 17.9447 2.33842 18.0027 2.69187 18.0026H13.7513C14.1047 18.0026 14.4546 17.9446 14.7811 17.8319C15.1075 17.7192 15.4042 17.554 15.6541 17.3458C15.9039 17.1375 16.1021 16.8903 16.2373 16.6183C16.3726 16.3462 16.4422 16.0546 16.4422 15.7601V4.10399H13.9663Z" fill="#0072FF"/>
</g>
<path d="M16.444 4.10399H13.9681C13.4215 4.10355 12.8973 3.92237 12.5107 3.60023C12.1242 3.27809 11.9068 2.8413 11.9062 2.38572V0L16.444 4.10399Z" fill="#0072FF"/>
<path d="M13.0608 6.97765H2.73726C2.63808 6.97765 2.54296 6.94482 2.47282 6.88637C2.40269 6.82792 2.36328 6.74866 2.36328 6.666C2.36315 6.62501 2.37273 6.58439 2.39147 6.54648C2.4102 6.50857 2.43773 6.47411 2.47247 6.44508C2.50721 6.41606 2.54848 6.39303 2.59392 6.37732C2.63936 6.3616 2.68807 6.35352 2.73726 6.35352H13.0608C13.1602 6.35352 13.2556 6.38644 13.3259 6.44504C13.3962 6.50365 13.4357 6.58313 13.4357 6.666C13.4355 6.74873 13.3958 6.82801 13.3256 6.88643C13.2553 6.94485 13.16 6.97765 13.0608 6.97765Z" fill="#0072FF"/>
<path d="M13.0608 8.84094H2.73726C2.63808 8.84094 2.54296 8.8081 2.47282 8.74965C2.40269 8.69121 2.36328 8.61194 2.36328 8.52928C2.36315 8.48829 2.37273 8.44767 2.39147 8.40976C2.4102 8.37185 2.43773 8.33739 2.47247 8.30837C2.50721 8.27934 2.54848 8.25631 2.59392 8.2406C2.63936 8.22489 2.68807 8.2168 2.73726 8.2168H13.0608C13.1602 8.2168 13.2556 8.2497 13.3259 8.3083C13.3962 8.36691 13.4357 8.44641 13.4357 8.52928C13.4355 8.61202 13.3958 8.69127 13.3256 8.74969C13.2553 8.80811 13.16 8.84094 13.0608 8.84094Z" fill="#0072FF"/>
<path d="M13.0608 10.7062H2.73726C2.68807 10.7062 2.63936 10.6981 2.59392 10.6824C2.54848 10.6667 2.50721 10.6436 2.47247 10.6146C2.43773 10.5856 2.4102 10.5511 2.39147 10.5132C2.37273 10.4753 2.36315 10.4347 2.36328 10.3937C2.36328 10.311 2.40269 10.2318 2.47282 10.1733C2.54296 10.1149 2.63808 10.082 2.73726 10.082H13.0608C13.16 10.082 13.2553 10.1148 13.3256 10.1733C13.3958 10.2317 13.4355 10.311 13.4357 10.3937C13.4357 10.4766 13.3962 10.556 13.3259 10.6146C13.2556 10.6732 13.1602 10.7062 13.0608 10.7062Z" fill="#0072FF"/>
<path d="M8.98895 12.5695H2.73726C2.68807 12.5695 2.63936 12.5614 2.59392 12.5456C2.54848 12.5299 2.50721 12.5069 2.47247 12.4779C2.43773 12.4488 2.4102 12.4144 2.39147 12.3765C2.37273 12.3386 2.36315 12.298 2.36328 12.257C2.36328 12.1743 2.40269 12.095 2.47282 12.0366C2.54296 11.9781 2.63808 11.9453 2.73726 11.9453H8.98895C9.08814 11.9453 9.18327 11.9781 9.2534 12.0366C9.32354 12.095 9.36293 12.1743 9.36293 12.257C9.36306 12.298 9.3535 12.3386 9.33476 12.3765C9.31602 12.4144 9.2885 12.4488 9.25376 12.4779C9.21902 12.5069 9.17774 12.5299 9.1323 12.5456C9.08687 12.5614 9.03815 12.5695 8.98895 12.5695Z" fill="#0072FF"/>
<path d="M18.3944 14.2168H5.89107C5.00414 14.2168 4.28516 14.816 4.28516 15.5551V18.6616C4.28516 19.4007 5.00414 19.9999 5.89107 19.9999H18.3944C19.2814 19.9999 20.0004 19.4007 20.0004 18.6616V15.5551C20.0004 14.816 19.2814 14.2168 18.3944 14.2168Z" fill="#0072FF"/>
<path d="M7.62015 17.7812V18.3871H6.86719V17.7812H7.62015Z" fill="white"/>
<path d="M10.5159 17.7829C10.3907 17.9724 10.2016 18.1271 9.97191 18.2279C9.71347 18.338 9.42614 18.3927 9.13594 18.387H8V15.8813H9.13594C9.42635 15.8753 9.71409 15.9288 9.9739 16.0371C10.2026 16.1361 10.3912 16.2892 10.5159 16.4771C10.6452 16.6771 10.7103 16.9016 10.7049 17.1288C10.71 17.3567 10.6449 17.5819 10.5159 17.7829ZM9.73392 17.6571C9.81521 17.5875 9.87818 17.5046 9.91881 17.4137C9.95945 17.3227 9.97686 17.2257 9.96991 17.1288C9.9769 17.032 9.95952 16.935 9.91887 16.8442C9.87823 16.7534 9.81523 16.6706 9.73392 16.6013C9.55174 16.4682 9.31379 16.4005 9.07196 16.4129H8.72897V17.8445H9.07294C9.31424 17.8567 9.55162 17.7893 9.73392 17.6571Z" fill="white"/>
<path d="M13.3174 16.0066C13.5462 16.1148 13.7353 16.273 13.8644 16.464C13.9997 16.6658 14.0686 16.8937 14.0644 17.1248C14.0689 17.3565 14 17.585 13.8644 17.7873C13.7349 17.9791 13.5451 18.1378 13.3154 18.2465C13.0816 18.3577 12.8166 18.4152 12.5474 18.4131C12.2783 18.4151 12.0133 18.3576 11.7795 18.2465C11.5499 18.138 11.3603 17.9792 11.2315 17.7873C11.0955 17.5852 11.0265 17.3565 11.0315 17.1248C11.0263 16.8937 11.0954 16.6655 11.2315 16.464C11.361 16.273 11.5504 16.1148 11.7795 16.0066C12.0133 15.8954 12.2783 15.8379 12.5474 15.8399C12.8173 15.8378 13.0829 15.8953 13.3174 16.0066ZM11.9775 16.5982C11.83 16.7452 11.7549 16.9335 11.7675 17.1248C11.7549 17.3155 11.83 17.5029 11.9775 17.649C12.0493 17.7141 12.1374 17.7652 12.2355 17.7989C12.3336 17.8326 12.4394 17.848 12.5454 17.844C12.6511 17.8477 12.7565 17.8323 12.8543 17.7986C12.952 17.7649 13.0398 17.7138 13.1114 17.649C13.2596 17.5032 13.3355 17.3157 13.3234 17.1248C13.3354 16.9343 13.2604 16.747 13.1134 16.6007C13.0416 16.5356 12.9535 16.4844 12.8554 16.4507C12.7573 16.417 12.6515 16.4016 12.5454 16.4057C12.4397 16.4016 12.3342 16.4168 12.2361 16.45C12.138 16.4832 12.0498 16.5338 11.9775 16.5982Z" fill="white"/>
<path d="M16.796 16.1067C17.0497 16.2786 17.2222 16.5198 17.283 16.7875H16.5131C16.4611 16.6765 16.3701 16.5813 16.2521 16.5142C16.1276 16.4466 15.9816 16.4121 15.8331 16.415C15.7351 16.4124 15.6376 16.4286 15.5483 16.4624C15.459 16.4962 15.3802 16.5467 15.3181 16.61C15.1789 16.7584 15.1079 16.9434 15.1181 17.1316C15.108 17.3191 15.1789 17.5033 15.3181 17.6508C15.3807 17.7134 15.4597 17.7633 15.5489 17.7966C15.6382 17.83 15.7354 17.8459 15.8331 17.8433C15.9816 17.8466 16.1278 17.812 16.2521 17.7441C16.3695 17.6782 16.4604 17.5844 16.5131 17.4749H17.283C17.2211 17.7419 17.0488 17.9822 16.796 18.1541C16.524 18.3272 16.188 18.4156 15.8461 18.4041C15.5767 18.4088 15.3107 18.353 15.0761 18.2424C14.8566 18.1361 14.6785 17.9793 14.5632 17.7908C14.4392 17.584 14.3774 17.3552 14.3832 17.1241C14.3775 16.8931 14.4393 16.6643 14.5632 16.4575C14.6785 16.269 14.8566 16.1122 15.0761 16.0059C15.3107 15.8953 15.5767 15.8394 15.8461 15.8442C16.1898 15.8366 16.5259 15.9295 16.796 16.1067Z" fill="white"/>
</svg>
