<svg width="20" height="20" viewBox="0 0 20 20" fill="none" xmlns="http://www.w3.org/2000/svg">
<path d="M16.875 5.625L10.2586 5.625L8.12031 3.48672C7.88906 3.25703 7.57031 3.125 7.24609 3.125L3.125 3.125C2.43594 3.125 1.875 3.68594 1.875 4.375L1.875 15.6719C1.875 16.3352 2.41484 16.875 3.07813 16.875H16.9453C17.5961 16.875 18.125 16.3461 18.125 15.6953V6.875C18.125 6.18594 17.5641 5.625 16.875 5.625ZM7.2375 4.37188L8.49063 5.625H3.125V4.375L7.2375 4.37188ZM16.875 15.625H3.125L3.125 6.875L16.875 6.875V15.625Z" fill="#000"/>
</svg>
