<svg width="20" height="20" viewBox="0 0 20 20" fill="none" xmlns="http://www.w3.org/2000/svg">
<path fill-rule="evenodd" clip-rule="evenodd" d="M1.875 4.375C1.875 3.68464 2.43464 3.125 3.125 3.125H16.875C17.5654 3.125 18.125 3.68464 18.125 4.375V15.625C18.125 16.3154 17.5654 16.875 16.875 16.875H3.125C2.43464 16.875 1.875 16.3154 1.875 15.625V4.375ZM16.875 4.375H3.125V15.625H16.875V4.375Z" fill="#000"/>
<path fill-rule="evenodd" clip-rule="evenodd" d="M6.39223 8.48085C6.54513 8.41683 6.70924 8.38387 6.875 8.38387C7.04076 8.38387 7.20487 8.41683 7.35777 8.48085C7.50981 8.54451 7.64774 8.63761 7.76365 8.75477L11.25 12.2411L11.2534 12.2377L12.8614 10.6297C12.9773 10.5126 13.1152 10.4195 13.2672 10.3559C13.4201 10.2918 13.5842 10.2589 13.75 10.2589C13.9158 10.2589 14.0799 10.2918 14.2328 10.3559C14.3848 10.4195 14.5227 10.5126 14.6386 10.6297L17.9419 13.9331C18.186 14.1771 18.186 14.5729 17.9419 14.8169C17.6979 15.061 17.3021 15.061 17.0581 14.8169L13.75 11.5089L13.7466 11.5123L12.1406 13.1182L12.1387 13.1202C12.0227 13.2374 11.8848 13.3305 11.7328 13.3942C11.5799 13.4582 11.4158 13.4912 11.25 13.4912C11.0842 13.4912 10.9201 13.4582 10.7672 13.3942C10.6152 13.3305 10.4773 13.2374 10.3613 13.1202L6.87499 9.63388L6.87164 9.63727L2.94194 13.5669C2.69786 13.811 2.30214 13.811 2.05806 13.5669C1.81398 13.3229 1.81398 12.9271 2.05806 12.6831L5.98633 8.7548C6.10224 8.63762 6.24018 8.54452 6.39223 8.48085Z" fill="#000"/>
<path d="M12.1875 8.75C12.7053 8.75 13.125 8.33027 13.125 7.8125C13.125 7.29473 12.7053 6.875 12.1875 6.875C11.6697 6.875 11.25 7.29473 11.25 7.8125C11.25 8.33027 11.6697 8.75 12.1875 8.75Z" fill="#000"/>
</svg>
