<svg width="21" height="20" viewBox="0 0 21 20" fill="none" xmlns="http://www.w3.org/2000/svg">
<g opacity="0.3">
<path opacity="0.3" d="M13.967 4.10334C13.4202 4.10312 12.8959 3.92201 12.5093 3.59981C12.1226 3.27761 11.9053 2.84067 11.905 2.385V0H2.69102C2.33754 -2.03384e-08 1.98754 0.0580282 1.66099 0.170777C1.33443 0.283525 1.03771 0.448782 0.787818 0.657106C0.537922 0.86543 0.339742 1.11274 0.204566 1.38491C0.069389 1.65708 -0.000131167 1.94878 1.85789e-07 2.24334V15.7609C-0.000131167 16.0554 0.069389 16.3471 0.204566 16.6193C0.339742 16.8914 0.537922 17.1388 0.787818 17.3471C1.03771 17.5554 1.33443 17.7207 1.66099 17.8334C1.98754 17.9462 2.33754 18.0042 2.69102 18.0042H13.751C14.1045 18.0042 14.4545 17.9462 14.781 17.8334C15.1076 17.7207 15.4043 17.5554 15.6542 17.3471C15.9041 17.1388 16.1023 16.8914 16.2375 16.6193C16.3726 16.3471 16.4421 16.0554 16.442 15.7609V4.10417L13.967 4.10334Z" fill="#00C650"/>
</g>
<path d="M16.4433 4.10334H13.9683C13.4215 4.10312 12.8971 3.92201 12.5105 3.59981C12.1239 3.27761 11.9065 2.84067 11.9062 2.385V0L16.4433 4.10334Z" fill="#00C650"/>
<path d="M18.3952 14.2168H5.89116C5.00419 14.2168 4.28516 14.816 4.28516 15.5551V18.6618C4.28516 19.4009 5.00419 20.0001 5.89116 20.0001H18.3952C19.2821 20.0001 20.0011 19.4009 20.0011 18.6618V15.5551C20.0011 14.816 19.2821 14.2168 18.3952 14.2168Z" fill="#00C650"/>
<path d="M8.42095 17.7812V18.3879H7.66797V17.7812H8.42095Z" fill="white"/>
<path d="M10.6553 15.8809V17.5925C10.6553 17.8553 10.5696 18.0573 10.3983 18.1984C10.3026 18.2719 10.1902 18.3285 10.0677 18.3651C9.94523 18.4016 9.81516 18.4171 9.68528 18.4109C9.54303 18.4172 9.40068 18.4 9.26646 18.3603C9.13223 18.3205 9.00878 18.259 8.90327 18.1792C8.7106 18.0242 8.61395 17.802 8.61328 17.5125H9.33228C9.33228 17.7467 9.43927 17.8634 9.65127 17.8634C9.83627 17.8634 9.92827 17.7734 9.92827 17.5942V15.8825L10.6553 15.8809Z" fill="white"/>
<path d="M11.8637 17.5075V18.3867H11.1367V15.8809H12.3147C12.6714 15.8809 12.9434 15.9545 13.1307 16.1017C13.2255 16.1791 13.2996 16.2724 13.348 16.3754C13.3964 16.4784 13.4182 16.5887 13.4117 16.6992C13.4145 16.8448 13.3714 16.9885 13.2867 17.1159C13.1996 17.2401 13.0701 17.3399 12.9147 17.4025C12.7275 17.4766 12.5219 17.5126 12.3147 17.5075H11.8637ZM12.6717 16.6992C12.6717 16.477 12.5257 16.3659 12.2337 16.3659H11.8637V17.0184H12.2337C12.5257 17.0206 12.6717 16.9142 12.6717 16.6992Z" fill="white"/>
<path d="M16.1073 16.0836C16.3494 16.2353 16.5123 16.4588 16.5623 16.7078H15.7923C15.7401 16.6205 15.658 16.5483 15.5563 16.5003C15.4417 16.4436 15.3104 16.4147 15.1772 16.4169C15.0739 16.4134 14.9708 16.4289 14.8754 16.4623C14.78 16.4957 14.6946 16.5462 14.6252 16.6103C14.4786 16.756 14.4039 16.9428 14.4163 17.1328C14.4163 17.3711 14.4893 17.5542 14.6353 17.6819C14.7174 17.7483 14.8152 17.7996 14.9225 17.8326C15.0297 17.8656 15.1441 17.8796 15.2583 17.8736C15.4214 17.8761 15.5811 17.8342 15.7133 17.7544C15.8482 17.6705 15.9457 17.5514 15.9903 17.4161H15.0712V16.9803H16.5982V17.5794C16.5399 17.7286 16.4476 17.8669 16.3262 17.9869C16.1949 18.1162 16.0315 18.2203 15.8472 18.2919C15.639 18.3721 15.4116 18.412 15.1823 18.4086C14.9032 18.4147 14.6272 18.3592 14.3823 18.2478C14.1581 18.1427 13.9757 17.9855 13.8573 17.7953C13.73 17.5893 13.6664 17.3602 13.6722 17.1286C13.6672 16.8984 13.7308 16.6708 13.8573 16.4661C13.9755 16.2763 14.1571 16.1192 14.3803 16.0136C14.6217 15.903 14.8938 15.8475 15.1692 15.8528C15.504 15.8406 15.8341 15.9218 16.1073 16.0836Z" fill="white"/>
<path d="M10.4308 12.2H6.01382C5.58141 12.1995 5.16687 12.0562 4.86111 11.8014C4.55535 11.5466 4.38334 11.2011 4.38281 10.8408V7.15995C4.38334 6.79962 4.55535 6.45416 4.86111 6.19936C5.16687 5.94456 5.58141 5.80122 6.01382 5.80078H10.4308C10.8631 5.80122 11.2776 5.94459 11.5832 6.19941C11.8888 6.45423 12.0606 6.79969 12.0608 7.15995V10.8408C12.0606 11.201 11.8888 11.5465 11.5832 11.8013C11.2776 12.0562 10.8631 12.1995 10.4308 12.2ZM6.01382 6.40161C5.77255 6.40183 5.54123 6.48181 5.37063 6.62397C5.20003 6.76614 5.10407 6.9589 5.10381 7.15995V10.8408C5.10407 11.0418 5.20003 11.2346 5.37063 11.3768C5.54123 11.5189 5.77255 11.5989 6.01382 11.5991H10.4308C10.672 11.5989 10.9032 11.5189 11.0736 11.3767C11.2441 11.2345 11.3398 11.0418 11.3398 10.8408V7.15995C11.3398 6.95898 11.2441 6.76622 11.0736 6.62402C10.9032 6.48183 10.672 6.40183 10.4308 6.40161H6.01382Z" fill="#00C650"/>
<path d="M11.6992 10.141V10.841C11.6989 11.1216 11.565 11.3907 11.3269 11.5891C11.0888 11.7876 10.7659 11.8991 10.4292 11.8994H6.01218C5.67536 11.8994 5.35233 11.7878 5.11416 11.5894C4.87599 11.3909 4.74219 11.1217 4.74219 10.841V9.66602C5.44919 9.53935 6.52618 9.49935 7.83318 9.93435L8.64319 9.29102L9.19517 10.4577C9.19517 10.4577 9.34317 10.0285 9.82117 10.0893C10.2992 10.1502 11.0732 10.366 11.4042 10.1818C11.4934 10.139 11.5981 10.1245 11.6992 10.141Z" fill="#00C650"/>
<path d="M10.1551 7.91208C10.4262 7.91208 10.6461 7.7289 10.6461 7.50292C10.6461 7.27694 10.4262 7.09375 10.1551 7.09375C9.88388 7.09375 9.66406 7.27694 9.66406 7.50292C9.66406 7.7289 9.88388 7.91208 10.1551 7.91208Z" fill="#00C650"/>
</svg>
