<svg width="40" height="40" viewBox="0 0 40 40" fill="none" xmlns="http://www.w3.org/2000/svg">
<path fill-rule="evenodd" clip-rule="evenodd" d="M5 20C5 19.3096 5.55964 18.75 6.25 18.75H33.75C34.4404 18.75 35 19.3096 35 20C35 20.6904 34.4404 21.25 33.75 21.25H6.25C5.55964 21.25 5 20.6904 5 20Z" fill="#000"/>
<path fill-rule="evenodd" clip-rule="evenodd" d="M5 10C5 9.30964 5.55964 8.75 6.25 8.75H33.75C34.4404 8.75 35 9.30964 35 10C35 10.6904 34.4404 11.25 33.75 11.25H6.25C5.55964 11.25 5 10.6904 5 10Z" fill="#000"/>
<path fill-rule="evenodd" clip-rule="evenodd" d="M5 30C5 29.3096 5.55964 28.75 6.25 28.75H33.75C34.4404 28.75 35 29.3096 35 30C35 30.6904 34.4404 31.25 33.75 31.25H6.25C5.55964 31.25 5 30.6904 5 30Z" fill="#000"/>
</svg>
