<svg width="18" height="18" viewBox="0 0 18 18" fill="none" xmlns="http://www.w3.org/2000/svg">
<path fill-rule="evenodd" clip-rule="evenodd" d="M11.8125 2.8125C11.8125 2.50184 12.0643 2.25 12.375 2.25H15.1875C15.4982 2.25 15.75 2.50184 15.75 2.8125V5.625C15.75 5.93566 15.4982 6.1875 15.1875 6.1875C14.8768 6.1875 14.625 5.93566 14.625 5.625V3.375H12.375C12.0643 3.375 11.8125 3.12316 11.8125 2.8125Z" fill="black"/>
<path fill-rule="evenodd" clip-rule="evenodd" d="M2.8125 11.8125C3.12316 11.8125 3.375 12.0643 3.375 12.375V14.625H5.625C5.93566 14.625 6.1875 14.8768 6.1875 15.1875C6.1875 15.4982 5.93566 15.75 5.625 15.75H2.8125C2.50184 15.75 2.25 15.4982 2.25 15.1875V12.375C2.25 12.0643 2.50184 11.8125 2.8125 11.8125Z" fill="black"/>
<path fill-rule="evenodd" clip-rule="evenodd" d="M15.1875 11.8125C15.4982 11.8125 15.75 12.0643 15.75 12.375V15.1875C15.75 15.4982 15.4982 15.75 15.1875 15.75H12.375C12.0643 15.75 11.8125 15.4982 11.8125 15.1875C11.8125 14.8768 12.0643 14.625 12.375 14.625H14.625V12.375C14.625 12.0643 14.8768 11.8125 15.1875 11.8125Z" fill="black"/>
<path fill-rule="evenodd" clip-rule="evenodd" d="M2.25 2.8125C2.25 2.50184 2.50184 2.25 2.8125 2.25H5.625C5.93566 2.25 6.1875 2.50184 6.1875 2.8125C6.1875 3.12316 5.93566 3.375 5.625 3.375H3.375V5.625C3.375 5.93566 3.12316 6.1875 2.8125 6.1875C2.50184 6.1875 2.25 5.93566 2.25 5.625V2.8125Z" fill="black"/>
<path fill-rule="evenodd" clip-rule="evenodd" d="M5.0625 6.1875C5.0625 5.56618 5.56618 5.0625 6.1875 5.0625H11.8125C12.4338 5.0625 12.9375 5.56618 12.9375 6.1875V11.8125C12.9375 12.4338 12.4338 12.9375 11.8125 12.9375H6.1875C5.56618 12.9375 5.0625 12.4338 5.0625 11.8125V6.1875ZM11.8125 6.1875H6.1875V11.8125H11.8125V6.1875Z" fill="black"/>
</svg>
