<svg width="28" height="28" viewBox="0 0 28 28" fill="none" xmlns="http://www.w3.org/2000/svg">
<path fill-rule="evenodd" clip-rule="evenodd" d="M14 2.625C14.4832 2.625 14.875 3.01675 14.875 3.5V7C14.875 7.48325 14.4832 7.875 14 7.875C13.5168 7.875 13.125 7.48325 13.125 7V3.5C13.125 3.01675 13.5168 2.625 14 2.625Z" fill="#000"/>
<path fill-rule="evenodd" clip-rule="evenodd" d="M20.125 14C20.125 13.5168 20.5168 13.125 21 13.125H24.5C24.9832 13.125 25.375 13.5168 25.375 14C25.375 14.4832 24.9832 14.875 24.5 14.875H21C20.5168 14.875 20.125 14.4832 20.125 14Z" fill="#000"/>
<path fill-rule="evenodd" clip-rule="evenodd" d="M18.3361 18.3361C18.6778 17.9943 19.2318 17.9943 19.5735 18.3361L22.0454 20.8079C22.3871 21.1496 22.3871 21.7037 22.0454 22.0454C21.7037 22.3871 21.1496 22.3871 20.8079 22.0454L18.3361 19.5735C17.9943 19.2318 17.9943 18.6778 18.3361 18.3361Z" fill="#000"/>
<path fill-rule="evenodd" clip-rule="evenodd" d="M14 20.125C14.4832 20.125 14.875 20.5168 14.875 21V24.5C14.875 24.9832 14.4832 25.375 14 25.375C13.5168 25.375 13.125 24.9832 13.125 24.5V21C13.125 20.5168 13.5168 20.125 14 20.125Z" fill="#000"/>
<path fill-rule="evenodd" clip-rule="evenodd" d="M9.6642 18.3361C10.0059 18.6778 10.0059 19.2318 9.6642 19.5735L7.19233 22.0454C6.85062 22.3871 6.2966 22.3871 5.95489 22.0454C5.61318 21.7037 5.61318 21.1496 5.95489 20.8079L8.42676 18.3361C8.76847 17.9943 9.32249 17.9943 9.6642 18.3361Z" fill="#000"/>
<path fill-rule="evenodd" clip-rule="evenodd" d="M2.625 14C2.625 13.5168 3.01675 13.125 3.5 13.125H7C7.48325 13.125 7.875 13.5168 7.875 14C7.875 14.4832 7.48325 14.875 7 14.875H3.5C3.01675 14.875 2.625 14.4832 2.625 14Z" fill="#000"/>
<path fill-rule="evenodd" clip-rule="evenodd" d="M5.95489 5.95468C6.2966 5.61297 6.85062 5.61297 7.19233 5.95468L9.6642 8.42655C10.0059 8.76826 10.0059 9.32228 9.6642 9.66399C9.32249 10.0057 8.76847 10.0057 8.42676 9.66399L5.95489 7.19211C5.61318 6.8504 5.61318 6.29639 5.95489 5.95468Z" fill="#000"/>
</svg>
