<svg width="28" height="28" viewBox="0 0 28 28" fill="none" xmlns="http://www.w3.org/2000/svg">
<path fill-rule="evenodd" clip-rule="evenodd" d="M14 8.3125C10.8589 8.3125 8.3125 10.8589 8.3125 14C8.3125 17.1411 10.8589 19.6875 14 19.6875C17.1411 19.6875 19.6875 17.1411 19.6875 14C19.6875 10.8589 17.1411 8.3125 14 8.3125ZM6.5625 14C6.5625 9.89238 9.89238 6.5625 14 6.5625C18.1076 6.5625 21.4375 9.89238 21.4375 14C21.4375 18.1076 18.1076 21.4375 14 21.4375C9.89238 21.4375 6.5625 18.1076 6.5625 14Z" fill="#000"/>
<path fill-rule="evenodd" clip-rule="evenodd" d="M14 0.875C14.4832 0.875 14.875 1.26675 14.875 1.75V3.9375C14.875 4.42075 14.4832 4.8125 14 4.8125C13.5168 4.8125 13.125 4.42075 13.125 3.9375V1.75C13.125 1.26675 13.5168 0.875 14 0.875Z" fill="#000"/>
<path fill-rule="evenodd" clip-rule="evenodd" d="M4.71887 4.71887C5.06058 4.37716 5.61459 4.37716 5.9563 4.71887L7.49849 6.26105C7.8402 6.60276 7.8402 7.15678 7.49849 7.49849C7.15678 7.8402 6.60276 7.8402 6.26105 7.49849L4.71887 5.9563C4.37716 5.61459 4.37716 5.06058 4.71887 4.71887Z" fill="#000"/>
<path fill-rule="evenodd" clip-rule="evenodd" d="M0.875 14C0.875 13.5168 1.26675 13.125 1.75 13.125H3.9375C4.42075 13.125 4.8125 13.5168 4.8125 14C4.8125 14.4832 4.42075 14.875 3.9375 14.875H1.75C1.26675 14.875 0.875 14.4832 0.875 14Z" fill="#000"/>
<path fill-rule="evenodd" clip-rule="evenodd" d="M7.49849 20.5016C7.8402 20.8433 7.8402 21.3973 7.49849 21.739L5.9563 23.2812C5.61459 23.6229 5.06058 23.6229 4.71887 23.2812C4.37716 22.9395 4.37716 22.3854 4.71887 22.0437L6.26106 20.5016C6.60276 20.1598 7.15678 20.1598 7.49849 20.5016Z" fill="#000"/>
<path fill-rule="evenodd" clip-rule="evenodd" d="M14 23.1875C14.4832 23.1875 14.875 23.5793 14.875 24.0625V26.25C14.875 26.7332 14.4832 27.125 14 27.125C13.5168 27.125 13.125 26.7332 13.125 26.25V24.0625C13.125 23.5793 13.5168 23.1875 14 23.1875Z" fill="#000"/>
<path fill-rule="evenodd" clip-rule="evenodd" d="M20.5018 20.5016C20.8435 20.1598 21.3975 20.1598 21.7392 20.5016L23.2814 22.0437C23.6231 22.3854 23.6231 22.9395 23.2814 23.2812C22.9397 23.6229 22.3857 23.6229 22.044 23.2812L20.5018 21.739C20.1601 21.3973 20.1601 20.8433 20.5018 20.5016Z" fill="#000"/>
<path fill-rule="evenodd" clip-rule="evenodd" d="M23.1875 14C23.1875 13.5168 23.5793 13.125 24.0625 13.125H26.25C26.7332 13.125 27.125 13.5168 27.125 14C27.125 14.4832 26.7332 14.875 26.25 14.875H24.0625C23.5793 14.875 23.1875 14.4832 23.1875 14Z" fill="#000"/>
<path fill-rule="evenodd" clip-rule="evenodd" d="M23.2814 4.71887C23.6231 5.06058 23.6231 5.61459 23.2814 5.9563L21.7392 7.49849C21.3975 7.8402 20.8435 7.8402 20.5018 7.49849C20.1601 7.15678 20.1601 6.60276 20.5018 6.26106L22.044 4.71887C22.3857 4.37716 22.9397 4.37716 23.2814 4.71887Z" fill="#000"/>
</svg>
