<svg width="28" height="28" viewBox="0 0 28 28" fill="none" xmlns="http://www.w3.org/2000/svg">
<path fill-rule="evenodd" clip-rule="evenodd" d="M14 4.375C8.68426 4.375 4.375 8.68426 4.375 14C4.375 19.3157 8.68426 23.625 14 23.625C19.3157 23.625 23.625 19.3157 23.625 14C23.625 8.68426 19.3157 4.375 14 4.375ZM2.625 14C2.625 7.71776 7.71776 2.625 14 2.625C20.2822 2.625 25.375 7.71776 25.375 14C25.375 20.2822 20.2822 25.375 14 25.375C7.71776 25.375 2.625 20.2822 2.625 14Z" fill="#000"/>
<path fill-rule="evenodd" clip-rule="evenodd" d="M14 9.625C12.067 9.625 10.5 11.192 10.5 13.125C10.5 15.058 12.067 16.625 14 16.625C15.933 16.625 17.5 15.058 17.5 13.125C17.5 11.192 15.933 9.625 14 9.625ZM8.75 13.125C8.75 10.2255 11.1005 7.875 14 7.875C16.8995 7.875 19.25 10.2255 19.25 13.125C19.25 16.0245 16.8995 18.375 14 18.375C11.1005 18.375 8.75 16.0245 8.75 13.125Z" fill="#000"/>
<path fill-rule="evenodd" clip-rule="evenodd" d="M14 18.375C12.7073 18.375 11.4397 18.7323 10.338 19.4085C9.23631 20.0848 8.34337 21.0529 7.75818 22.2055C7.53942 22.6364 7.01276 22.8084 6.58186 22.5896C6.15097 22.3708 5.979 21.8442 6.19776 21.4133C6.92925 19.9725 8.04542 18.7624 9.42255 17.9171C10.7997 17.0718 12.3841 16.625 14 16.625C15.6159 16.625 17.2 17.0718 18.5771 17.9171C19.9543 18.7624 21.0704 19.9725 21.8019 21.4133C22.0207 21.8442 21.8487 22.3708 21.4178 22.5896C20.9869 22.8084 20.4603 22.6364 20.2415 22.2055C19.6563 21.0529 18.7634 20.0848 17.6617 19.4085C16.56 18.7323 15.2927 18.375 14 18.375Z" fill="#000"/>
</svg>
