<svg width="20" height="20" viewBox="0 0 20 20" fill="#000" xmlns="http://www.w3.org/2000/svg">
<path d="M0 2.92683H17.9167C19.0673 2.92683 20 4.01882 20 5.36585V17.561C20 18.908 19.0673 20 17.9167 20H10H2.08333C0.93274 20 0 18.908 0 17.561V2.92683Z" fill="#000"/>
<path d="M0 6.58537V16.5854C0 17.9324 0.93274 19.0244 2.08333 19.0244H17.9167C19.0673 19.0244 20 17.9324 20 16.5854V6.34146C20 4.99443 19.0673 3.90244 17.9167 3.90244H9.16667V5.12195C9.16667 5.93017 8.60702 6.58537 7.91667 6.58537H0Z" fill="#000"/>
<path d="M0 1.95122C0 0.873591 0.746192 0 1.66667 0H7.5C8.42047 0 9.16667 0.873591 9.16667 1.95122V2.92683H0V1.95122Z" fill="#000"/>
<defs>
<linearGradient id="paint0_linear_167_963" x1="0" y1="0" x2="28.4891" y2="14.5805" gradientUnits="userSpaceOnUse">
<stop stop-color="#000"/>
<stop offset="1" stop-color="#000"/>
</linearGradient>
</defs>
</svg>
